<?xml version="1.0" encoding="UTF-8"?><svg id="Layer_1" xmlns="http://www.w3.org/2000/svg" viewBox="0 0 794.81 456.83"><defs><style>.cls-1{fill:none;}.cls-2{fill:#f6b52d;}.cls-3{fill:#e63c35;}.cls-4{fill:#fff;}.cls-5{fill:#b63425;}.cls-6{fill:#d22e2e;}.cls-7{fill:#231f20;}.cls-8{fill:#701829;}.cls-9{fill:#700e17;}.cls-10{fill:#891723;}</style></defs><g><path class="cls-4" d="M156.24,456.83L44.39,135.12c-14.99-43.82-21.33-52.46-34.02-58.23L0,72.28v-11.53H166.97v11.53l-27.21,4.61c-17.87,3.46-23.69,11.53-9.28,58.23l58.23,189.68c5.76,19.03,15.68,38.05,16.83,54.77h18.84c1.15-16.72,9.22-39.78,14.99-55.92l61.69-177c17.3-49.01,23.28-65.15,3.68-69.76l-11.31-4.61v-11.53h115.3v11.53l-6.81,4.61c-12.68,5.77-17.87,14.41-34.02,58.23l-120.5,321.71h-91.17Z"/><g><path class="cls-9" d="M163.36,163.61c24.5-16.22,38.45-33.69,65.5-41.95,6.18,71.25,70.71,163.07,70.71,163.07-26.56-14.14-57.48,16.37-91.76-15.65-31.13-29.08-46.08-94.68-44.45-105.47Z"/><path class="cls-10" d="M311.58,160.14s43.41,73.82,164.73,138.06c0,0-57.53,22.82-96.93-13.53-46.53-42.93-72.81,35.61-136.89-.76-92.55-52.53-60.72-146.15,69.09-123.77Z"/><path class="cls-8" d="M310.69,163.96c37.84-4.64,130.51,96.16,130.51,96.16-2.69-.33-53.75-31.87-116.03,13.09-32.93,23.77-71.12,13.85-95.1-5.99-76.14-63.01-40.73-118.75,80.62-103.27Z"/><path class="cls-3" d="M163.23,163.2c8.4-22.59,21.11-25.36,31.27-30.59,1.41,.47,2.65,1.01,3.63,1.65l-2.45-2.72c21.21-19.51,43.76-33.94,58.42-42.36-37.76-4.84-58.67-5.07-76.48,2.34C215.66,47.62,281.75,0,281.75,0c0,0-22.88,50.19,0,113.49,9.14,25.3,97.14,117.69,97.14,117.69-99.53-4.02-154.75-22.73-184.39-39.52-28.08-15.91-33.19-30.1-31.27-28.46Z"/><path class="cls-2" d="M168.17,97.96c8.73-1.24,20.49-4.14,26.33,1.81,8.44,8.6,3.82,31.76,3.82,31.76-.4,.36-49.9-11.07-49.9-11.07,12.61-16.04,19.75-22.5,19.75-22.5Z"/><path class="cls-7" d="M261.62,92.22c-19.13,8.05-34.74,13.01-66.92,46.34,2.72-41.97,3.43-35.69-25.54-40.48,2.63-4.14,46.07-42.88,92.46-5.86Z"/><path class="cls-6" d="M310.69,159c37.84-4.64,130.51,101.12,130.51,101.12-2.69-.33-53.75-36.83-116.03,8.14-28.86,20.84-75.19,10.49-95.1-5.99-76.14-63.01-40.73-118.75,80.62-103.27Z"/></g><g><path class="cls-4" d="M617.2,321.72c.06,0,.12,.01,.18,.02-.06,0-.12,0-.18-.02Z"/><path class="cls-4" d="M642.5,399.71c6.93,6.37,16.35,10.16,23.32,10.16,.84,0,1.64-.06,2.4-.17-3.34-7.66-7.09-17.56-11.72-30.6,0,0-11.14-26.05-10.62-22.97-3.41,7.62-7.88,16.37-13.32,24.45,2.52,8.03,5.76,15.29,9.94,19.13Z"/><path class="cls-4" d="M671.82,417.42c-1.84,.5-3.85,.77-6,.77-9.42,0-20.78-4.85-28.95-12.35-3.94-3.62-7.35-9.28-10.32-17.16-4.3,5.21-9.07,9.77-14.27,13.04-6.64,4.18-13.05,6.3-19.05,6.3-7.82,0-14.7-3.49-19.92-10.11-3.29-4.18-5.05-8.54-5.79-10.69-1.1-1.09-3.76-2.72-5.22-3.29-.05,0-.1,0-.16,0-1.55,0-3.42-.33-5.35-1.09,13.61,42.82,10.35,50.57-9.27,54.49l-22.49,4.61v11.53h175.84v-11.53l-10.38-4.61c-7.5-3.41-12.58-7.83-18.69-19.92Z"/><path class="cls-4" d="M547.2,351.08c-.29-.15-.59-.3-.89-.47l.59,1.82c.1-.45,.2-.91,.3-1.35Z"/><polygon class="cls-4" points="600.98 225.05 600.98 225.05 600.97 225.06 600.98 225.05"/></g><g><polygon class="cls-4" points="555.41 352.48 555.41 352.48 555.4 352.49 555.41 352.48"/><path class="cls-4" d="M554.43,356.97c.1-.49,.21-.95,.3-1.4-.1,.44-.2,.91-.3,1.4Z"/><path class="cls-4" d="M553.97,359.13c.13-.62,.25-1.19,.37-1.75-.12,.56-.24,1.14-.37,1.75Z"/><path class="cls-4" d="M615.75,399.29c-1.13,.87-2.29,1.68-3.47,2.43-6.64,4.18-13.05,6.3-19.05,6.3-7.82,0-14.7-3.49-19.92-10.11-3.29-4.18-5.05-8.54-5.79-10.69-1.1-1.09-3.76-2.72-5.22-3.29-.05,0-.1,0-.16,0-3.55,0-8.72-1.7-12.58-6.46-2.88-3.54-5.86-9.9-3.74-20.05,.39-1.86,.74-3.47,1.05-4.85,.11-.5,.22-1,.33-1.49l-.91-4.23c-35.23-21.15-79.09-40.37-132.21-51.62l36.01-100.03c8.65-24.21,20.18-54.19,23.06-68.03h2.31c2.31,13.84,10.95,39.78,18.45,62.84l34.59,106.08,6.86,20.98c.82-1.94,1.88-3.97,3.23-6.06,.75-1.18,4.9-7.06,15.5-12.68-.71-.87-1.41-1.76-2.09-2.67-9.54-12.83-9.55-26.83-7.87-36.32,2.17-12.29,8.5-24.03,15.38-28.55,4.46-2.94,8.9-3.31,12.27-3.31,.86,0,1.71,.02,2.53,.05,.81,.02,1.58,.05,2.35,.05,3.38,0,9.04,0,18.94-8.86,.77-.69,1.57-1.33,2.4-1.94l-56.81-157.65h-91.09l-1.73,4.61c7.5,16.14,7.5,20.75,0,39.78l-72.48,185.27c-60.49-7.65-131.4-4.93-213.5,15.24,0,0,93.61-5.76,200.82,17.15l-22.66,57.92c-16.72,43.24-21.33,52.47-34.02,58.23l-10.38,4.61v11.53h118.19v-11.53l-20.75-4.61c-22.49-5.19-22.49-23.06-7.49-64.57l15.15-42.31c69.65,19.17,141.02,51.61,193.4,106.24l65.43,13.4s-14.21-22.45-44.33-50.81Z"/></g></g><g><path class="cls-1" d="M651.58,297.92c.08,.05,.15,.11,.23,.17,1.21-1.48,1.55-2.76,1.32-3.44-.07-.19-.19-.4-.62-.46-.84-.12-2.7,.45-5.02,2.96,1.61-.14,3.03,.09,4.1,.77Z"/><path class="cls-1" d="M647.5,310.34c-.36-.16-.71-.35-1.01-.61-.64-.54-1.04-1.22-1.29-1.93-.41,.06-.82,.11-1.19,.11-.34,0-.67-.03-.98-.09-.43,1.43-1.26,2.82-3.01,3.35,.03,.06,.06,.11,.09,.16,.41,.43,.95,.8,1.46,1.09,2.33,1.31,4.16,1.75,5.02,1.19,.93-.6,.98-2.46,.94-2.93l-.03-.34Z"/><path class="cls-1" d="M648.13,306.94c.08,.19,.19,.35,.33,.47,.6,.5,2.03,.35,3.92-.42,2.27-.92,3.36-2.16,3.43-2.98,.02-.2-.01-.44-.38-.68-.43-.27-1.27-.47-2.54-.3-.77,1.56-2.45,2.95-4.77,3.91Z"/><path class="cls-1" d="M640.64,317.55c-.33,0-.65,.06-.92,.2-.89,.46-1.19,1.87-1.28,2.97-.15,1.82,.4,2.83,.96,3.17,.54,.33,1.08,.08,1.36-.09,1.03-.65,2.02-2.49,1.86-5.77-.55-.23-1.3-.47-1.99-.47Z"/><path class="cls-1" d="M600.25,232.95c.34,.68,1.04,1.09,1.77,1.09,.19,0,.38-.03,.57-.08,9.97-2.97,16.27-3.59,19.8-3.59s5.25,.66,5.47,.76c.33,.22,.69,.33,1.05,.33,.49,0,.98-.19,1.37-.56,.68-.65,.76-1.72,.27-2.52-2.31-3.7-5.92-5.66-10.44-5.66-8.89,0-18.86,7.45-19.28,7.77-.76,.58-1.01,1.62-.57,2.47Z"/><path class="cls-1" d="M643.84,291.37c-.77,.59-1.81,2.74-1.24,7.15,.13-.06,.27-.12,.4-.18l-.07-.36,.39-.54c.89-1.25,1.83-2.33,2.77-3.23-.26-1.67-.89-2.68-1.49-2.97-.19-.09-.42-.14-.77,.12Z"/><path class="cls-1" d="M643.5,302.2c.28,.53,.34,1.09,.16,1.63-.06,.18-.1,.57-.14,.98,.74,.15,1.91-.07,3.36-.66,2.27-.92,3.36-2.16,3.43-2.98,.02-.2-.01-.44-.38-.68-.8-.51-3.08-.75-6.84,1.15,.16,.18,.3,.36,.4,.56Z"/><path class="cls-1" d="M641.15,304.8c.06-.6,.11-1.12,.23-1.55-.3-.4-1.66-1.12-3.21-1.57-.05-.01-.15-.02-.29-.02-.58,0-1.8,.17-2.96,.94-1.21,.8-1.94,1.99-2.17,3.54-.14,.91,.17,1.35,.41,1.61,1.25,1.32,4.79,1.32,6.03,1.2,1.49-.34,1.77-2.01,1.98-4.15Z"/><path class="cls-1" d="M636.63,311.32c-.61-.05-1.27-.13-1.92-.28-.65,.27-1.28,.81-1.78,1.31-1.28,1.3-1.5,2.43-1.29,3.05,.2,.59,.78,.76,1.11,.8,1.21,.16,3.15-.62,5.12-3.25-.27-.53-.71-1.2-1.24-1.63Z"/><path class="cls-1" d="M635.11,295.63c-.06,.2-.06,.66-.05,1.06,0,.17,0,.36,0,.55,.44,.26,.8,.56,1.06,.86,.33,.38,.56,.81,.73,1.27,.82-.13,1.53-.1,1.97,.02,.23,.07,.55,.17,.88,.29-.6-3.75-.28-6.92,.85-9.01-.5-.07-1.02-.1-1.5-.1-.59,0-1.14,.04-1.6,.09-1.14,.12-1.88,.58-2.35,1.42-.17,.31-.29,.68-.39,1.07,0,0,0,0,0,0,.49,.92,.63,1.75,.4,2.47Z"/><path class="cls-1" d="M623.27,301.41s.02-.05,.03-.08c-.93,1.15-1.72,2.57-2.11,4.08-.22,.87,.04,1.13,.14,1.23,.44,.44,1.42,.61,2.59,.61-.74-1.55-1.4-3.75-.65-5.85Z"/><path class="cls-1" d="M565.78,270.98c.45,0,.88-.1,1.28-.29,1.27-.6,1.94-1.98,1.62-3.35-.03-.12-2.6-11.93,2.4-20.27,.32-.49,.5-1.06,.5-1.64,0-1.63-1.34-2.96-2.98-2.98h-.11c-.46,.02-.92,.14-1.32,.36-.29,.16-.55,.36-.8,.63-4.38,4.86-10.62,16.63-2.94,26.41,.57,.72,1.42,1.14,2.35,1.14Z"/><path class="cls-1" d="M630.17,299.84c-2.25,.53-3.61,1.4-4.03,2.58-.5,1.4,.29,3.23,.95,4.33,1.28-.23,2.39-.67,3.35-1.21,.39-2.13,1.5-3.85,3.25-4.98,.09-.06,.18-.1,.27-.16-.04-.11-.09-.22-.16-.3-.25-.29-.81-.51-1.72-.51-.52,0-1.15,.07-1.91,.25Z"/><path class="cls-1" d="M625.79,298.36c.99-.64,2.21-1.14,3.69-1.49,1.28-.3,2.32-.37,3.21-.3,0-.56,0-1.14,.16-1.66,.07-.68-1.77-2.75-2.51-2.98-.05-.01-.15-.02-.29-.02-.58,0-1.8,.17-2.96,.94-1.21,.8-1.94,1.99-2.17,3.54-.14,.91,.17,1.36,.41,1.61,.13,.14,.3,.25,.47,.36Z"/><path class="cls-1" d="M632.37,318.92c-.53-.07-1.01-.23-1.44-.46-.31,.6-.58,1.24-.77,1.89-.17,.56-.15,.95,.05,1.16,.69,.7,3.07,.65,5.48,.21-.02-.39-.02-.8,.02-1.23,.08-.91,.24-1.71,.49-2.41-1.05,.57-2.11,.89-3.14,.89-.23,0-.46-.01-.68-.05Z"/><path class="cls-1" d="M631.78,309.68c-.12-.1-.25-.19-.35-.3-.19-.2-.35-.43-.49-.66-1.29,.59-2.77,1.02-4.41,1.19l-.33,.03c-.46,.78-.84,1.61-1.1,2.48-.17,.56-.15,.95,.05,1.16,.52,.53,2.02,.63,3.77,.45,.23-1.21,.93-2.45,2.06-3.6,.27-.28,.54-.52,.81-.75Z"/><path class="cls-1" d="M630.89,334.88c-1.38-.42-2.93,.27-3.56,1.56-.88,1.84-2,3.75-3.33,5.69-1.09,1.59-2.32,3.19-3.67,4.76-1.11,1.3-2.28,2.58-3.48,3.8-10.91,11.08-24.44,18.39-24.57,18.47-1.15,.62-1.76,1.89-1.52,3.17,.24,1.28,1.27,2.25,2.57,2.41,1.56,.19,3.12,.29,4.62,.29,8.92,0,16.57-3.39,22.73-10.07,1.28-1.38,2.45-2.85,3.49-4.37,.92-1.33,1.8-2.78,2.62-4.29,.24-.44,.46-.88,.68-1.32,4.28-8.51,5.46-16.5,5.51-16.83,.21-1.47-.67-2.85-2.08-3.28Z"/><path class="cls-1" d="M721.22,276.64c-.27-.17-27.12-16.82-23.14-41.65,.04-.21,.07-.42,.07-.63,0-1.59-1.25-2.9-2.83-2.98h-.16c-.17,0-.35,.01-.52,.04-.47,.08-.91,.28-1.29,.57-.31,.23-.56,.52-.75,.85-.12,.2-.22,.42-.28,.62-.18,.54-1.77,5.48-2.35,12.01-.82,9.2,.79,17.24,4.63,23.27,4.89,7.66,13.22,12.17,24.75,13.41,.11,.01,.22,.02,.32,.02,1.28,0,2.41-.81,2.82-2.03,.45-1.33-.08-2.77-1.28-3.5Z"/><path class="cls-1" d="M679.8,258.07c-.64,0-1.24,.21-1.74,.59-1.03,.75-10.09,7.58-12.92,14.96-.43,1.12-.15,2.38,.72,3.21,.56,.54,1.29,.83,2.07,.83,.41,0,.8-.08,1.17-.24,.47-.2,11.53-5.06,13.64-15.65,.06-.24,.09-.48,.09-.73,0-1.64-1.35-2.98-3.02-2.98Z"/><path class="cls-1" d="M725.65,342.82c-.97-.85-2.47-.97-3.56-.28-1.11,.7-1.63,2.07-1.28,3.33,.17,.62,4.09,15.45-11.42,27.35-1.23,.94-1.53,2.7-.68,4,.55,.84,1.49,1.35,2.5,1.35,.5,0,1-.13,1.44-.37,.72-.4,17.7-9.91,19.01-21.95,.54-4.92-1.48-9.44-6-13.42Z"/><path class="cls-1" d="M709.08,356.7c.99-1.37,1.25-1.73-2.62-13.41-2.8-8.45-8.75-15.28-17.19-19.75-1.97-1.04-4.09-1.96-6.3-2.75l-18.44-3.3h-.16c-1.56,.03-2.81,1.21-2.93,2.76-.05,.75,.17,1.49,.64,2.07,.46,.58,1.12,.97,1.85,1.08,3.26,.53,6.66,1.59,10.11,3.15,13.21,5.96,23.44,17.64,24.79,19.23,.39,.92,1.28,2.98,2.22,5.04,2.57,5.65,3.33,7.13,5.57,7.13,.97,0,1.89-.47,2.46-1.26Z"/><path class="cls-1" d="M786.5,304.36s-.35-.05-1.02,.29c-1.38,.71-12.15,6.23-16.93,7.83,2.45,1.07,7.32,2.49,8.69,2.05,1.69-.54,6.6-5.71,9.46-9.02,.03-.53-.07-1.06-.2-1.15Z"/><path class="cls-1" d="M763.28,295.18c-2.7,3.63-6.29,9.59-5.58,11.86,.08,.24,.22,.51,.73,.67,3.3,1.03,15.68-3.21,24.74-6.89l-19.89-5.64Z"/><path class="cls-1" d="M568.99,354.28c.17,1.3,1.19,2.35,2.49,2.56,1.17,.19,2.41,.28,3.66,.28,7.06,0,15.18-2.92,24.14-8.68,6.57-4.23,11.04-8.35,11.22-8.53,1.07-.99,1.27-2.6,.46-3.82-.78-1.19-2.38-1.67-3.7-1.09l-36.53,16.17c-1.2,.53-1.92,1.81-1.75,3.11Z"/><path class="cls-1" d="M580.99,368.22c-6.2-3.36-11.84-4-12.08-4.02-1.52-.17-2.88,.82-3.22,2.28-.35,1.46,.45,2.95,1.86,3.48,10.82,4.04,23.6,21.49,23.72,21.66,.56,.77,1.46,1.22,2.41,1.22,.42,0,.82-.09,1.2-.25,1.27-.56,2-1.96,1.72-3.32-1.89-9.25-7.29-16.53-15.61-21.04Z"/><path class="cls-1" d="M658.05,345.89c-1.02-.58-2.37-.49-3.3,.23-.96,.74-1.37,1.97-1.06,3.13,.15,.56,3.84,13.84,17.14,21.05,.43,.24,.93,.36,1.42,.36,.81,0,1.6-.34,2.16-.93,.93-.98,1.08-2.46,.38-3.61-1.03-1.68-10.22-16.51-16.75-20.23Z"/><path class="cls-1" d="M584.04,326.11c.05-.22,.08-.44,.08-.67,0-1.64-1.34-2.98-3.07-2.98-.48,.01-.95,.14-1.35,.37-1.6,.86-15.76,8.58-19.57,15.74-.56,1.05-.44,2.33,.3,3.26,.57,.71,1.42,1.12,2.33,1.12,.26,0,.52-.03,.77-.1,.75-.2,18.41-5.06,20.51-16.73Z"/><path class="cls-5" d="M775.65,317.12v-.34l-.1,.34s.07,0,.1,0Z"/><path class="cls-4" d="M733.95,285.12c.23-10.65-3.56-12.69-9.29-15.77-3.61-1.94-7.71-4.15-11.43-9.07-8.24-10.88-8.09-17.58-7.97-22.96,.12-5.42,.2-8.7-9.35-13.67-2.26-1.18-4.78-1.42-7.44-1.77-17.7-2.38-31.92,16.87-36.5,23.02,.84,1.86,1.35,3.06,1.42,3.23,.33,.77,.55,1.56,.66,2.37,.01,.1,.1,.7,.23,1.73,3.17-4.59,6.7-7.65,10.51-9.09,.69-.26,1.39-.47,2.08-.63,1.2-.27,2.17-.4,2.97-.4,2.67,0,3.66,1.48,4.01,2.36,1.19,2.98-1.3,5.56-8.7,12.6-2.9,2.76-6.5,6.19-9.56,9.6,.25,4.05,.41,8.01,.45,11.77,.01,.92,.01,1.82,.01,2.71,2.24,1.48,4.39,3.31,6.4,5.44,4.09-.97,8.35-1.47,12.67-1.47,8.74,0,18.04,1.98,27.65,5.89,2.01,.53,7.09,1.98,12.79,4.45,5.24-3.86,11.36-7.01,18.27-8.96,.05-.45,.08-.91,.09-1.38Zm-51.22-23.34c-2.11,10.6-13.17,15.45-13.64,15.65-.37,.16-.77,.24-1.17,.24-.78,0-1.51-.3-2.07-.83-.87-.83-1.15-2.09-.72-3.21,2.83-7.38,11.9-14.21,12.92-14.96,.5-.38,1.11-.58,1.74-.59,1.67,0,3.02,1.34,3.02,2.98,0,.24-.03,.49-.09,.73Zm39.76,18.36c-.41,1.21-1.54,2.03-2.82,2.03-.11,0-.21,0-.32-.02-11.53-1.24-19.86-5.75-24.75-13.41-3.85-6.03-5.45-14.07-4.63-23.27,.58-6.53,2.17-11.47,2.35-12.01,.06-.21,.16-.42,.28-.62,.19-.33,.45-.61,.75-.85,.38-.29,.82-.48,1.29-.57,.17-.03,.34-.05,.52-.05h.16c1.58,.08,2.83,1.39,2.83,2.98,0,.21-.02,.43-.07,.63-3.98,24.83,22.87,41.48,23.14,41.65,1.2,.73,1.73,2.17,1.28,3.5Z"/><path class="cls-4" d="M630.82,334.46c-1.44-.8-3.02-1.86-4.59-3.06h-.22c-.58,.02-1.17,.03-1.77,.02h-.34c-1.43-.02-2.93-.08-4.43-.18-22.39-1.44-44.69-10.89-59.72-25.31-9.8,4.9-13.27,10.05-13.3,10.1-4.04,6.25-5.13,12.12-3.22,17.45,2,5.59,6.84,8.97,9.42,9.79,5.44,1.73,5.24,2.64,3.33,11.3l-.04,.19c-.29,1.32-.62,2.83-.99,4.58-1.37,6.56,.25,10.29,1.85,12.27,1.94,2.39,4.35,3.02,5.35,3.02,.09,0,.18,0,.26-.02,.13-.02,.28-.03,.45-.03,3.24,0,12.16,5.25,13.29,9.03,.23,.77,1.54,4.81,4.49,8.54,6.36,8.07,15.56,8.69,26.69,1.69,5.16-3.25,10.32-8.38,15.33-15.26,1.01-1.39,2.04-2.88,3.06-4.44,1.03-1.58,2.06-3.24,3.06-4.94,8.99-15.28,14.67-31.83,15.86-35.46-4.72,2.87-9.59,3.08-13.8,.72Zm-19.85,1.63c.8,1.22,.61,2.83-.46,3.82-.19,.17-4.65,4.3-11.22,8.53-8.96,5.76-17.08,8.68-24.14,8.68-1.25,0-2.48-.09-3.66-.28-1.29-.21-2.32-1.26-2.49-2.56-.17-1.3,.55-2.58,1.75-3.11l36.53-16.17c1.31-.58,2.91-.1,3.7,1.09Zm-48.21,6.86c-.91,0-1.76-.41-2.33-1.12-.74-.93-.86-2.21-.3-3.26,3.81-7.15,17.97-14.88,19.57-15.74,.4-.22,.87-.35,1.35-.37,1.74,0,3.07,1.34,3.07,2.98,0,.23-.03,.45-.08,.67-2.11,11.67-19.76,16.53-20.51,16.73-.25,.07-.51,.1-.77,.1Zm32.13,49.64c-.38,.17-.79,.25-1.2,.25-.95,0-1.85-.46-2.41-1.22-.13-.18-12.91-17.62-23.72-21.66-1.4-.52-2.2-2.02-1.86-3.48,.34-1.45,1.7-2.45,3.22-2.28,.24,.03,5.88,.66,12.08,4.02,8.32,4.51,13.72,11.79,15.61,21.04,.28,1.36-.44,2.76-1.72,3.32Zm38.08-54.44c-.05,.34-1.23,8.33-5.51,16.83-.22,.44-.44,.88-.68,1.32-.82,1.52-1.7,2.96-2.62,4.29-1.04,1.51-2.22,2.98-3.49,4.37-6.16,6.68-13.81,10.07-22.73,10.07-1.5,0-3.06-.1-4.62-.29-1.29-.16-2.33-1.13-2.57-2.41-.24-1.28,.37-2.56,1.52-3.17,.13-.07,13.67-7.39,24.57-18.47,1.2-1.22,2.37-2.49,3.48-3.8,1.34-1.57,2.58-3.18,3.67-4.76,1.33-1.94,2.45-3.85,3.33-5.69,.62-1.29,2.18-1.98,3.56-1.56,1.42,.43,2.29,1.81,2.08,3.28Z"/><path class="cls-4" d="M643.97,252.91l-.11-.84c-.18-.42-.82-1.89-1.75-3.95-.65-1.43-1.32-2.87-1.99-4.27-6.48-13.57-11.91-21.89-14.91-22.83-2.29-.72-4.89-1.1-7.51-1.1-6.11,0-11.75,2.04-15.88,5.74-11.03,9.87-18.61,11.23-25.15,11.23-.91,0-1.78-.02-2.62-.05-.77-.02-1.52-.04-2.26-.04h0c-2.66,0-4.9,.3-7.14,1.78-4.1,2.69-9.45,11.8-11.32,22.39-1.36,7.68-1.39,18.97,6.17,29.13,.99,1.33,2.08,2.68,3.23,3.99,.99,1.13,2.02,2.24,3.06,3.28,1.05,1.06,2.19,2.11,3.36,3.15,12.29,10.79,29.23,18.06,46.61,20.04-.65-.94-1.26-1.89-1.81-2.83-18.88-2.09-30.72-11.07-37.33-18.26l-.21-.22c-.21-.23-.39-.43-.56-.61-.77-.87-1.52-1.78-2.29-2.78-.94-1.2-1.83-2.45-2.65-3.7-3.66-5.56-5.06-9.82-5.12-10-.46-1.39,.16-2.89,1.45-3.57,1.25-.65,2.91-.28,3.76,.85,2.57,3.41,5.46,6.71,8.58,9.82,1.2,1.19,2.45,2.38,3.73,3.52,1.37,1.23,2.77,2.41,4.15,3.51,9.33,7.44,18.3,11.77,23.33,13.86-.4-1.56-.65-3.1-.72-4.6-.21-3.93,.61-7.71,2.44-11.23-.12-.17-.22-.35-.29-.54-.06-.14-.31-.77-.73-1.74-.4-.95-1.05-2.45-1.87-4.25-2.51-5.52-6.27-13.11-9.94-17.97-.92-1.22-.78-2.92,.33-3.97,1.07-1.01,2.87-1.05,3.98-.09,.43,.37,10.15,8.82,13.11,20.51,.23-6.39,.5-18.78-.15-22.96-.24-.53-.39-.83-.41-.85-.49-.93-.45-2.06,.1-2.95,.54-.88,1.51-1.42,2.54-1.42,1.27,.02,2.9,.64,3.51,3.5,3.62,8.39,3.68,15.19,2.94,19.69,1.33-.8,2.67-1.51,3.98-2.1l.06-.31,.03-.82c.18-4.69,.15-9.54-.07-13.67-.41-7.56-1.26-8.99-1.43-9.2-1.01-1.27-.83-3.09,.41-4.14,1.19-1,3.12-.86,4.15,.3,.12,.14,1.23,1.41,2.49,3.63,.93,1.65,1.72,3.42,2.34,5.27,.84,2.5,1.34,5.12,1.5,7.79,.17,2.84-.06,5.75-.67,8.66,.98-.11,1.94-.17,2.88-.17h0c1.47,0,2.97,.13,4.45,.4-.23-11.32-1.39-21.2-1.75-24Zm-72.89-5.85c-5,8.35-2.42,20.16-2.4,20.27,.31,1.37-.36,2.75-1.62,3.35-.4,.19-.83,.29-1.28,.29-.92,0-1.78-.42-2.35-1.14-7.68-9.78-1.43-21.55,2.94-26.41,.25-.27,.51-.47,.8-.63,.4-.22,.86-.34,1.32-.36h.11c1.64,.01,2.98,1.35,2.98,2.98,0,.59-.17,1.16-.5,1.64Zm59.54-15.82c-.48,.45-1.08,.7-1.71,.7-.46,0-.9-.13-1.29-.39-.27-.12-1.79-.7-5.23-.7s-9.75,.62-19.66,3.57c-.23,.07-.47,.1-.71,.1-.94,0-1.79-.52-2.21-1.36-.54-1.07-.24-2.37,.72-3.1,.43-.32,10.52-7.87,19.58-7.87,4.71,0,8.47,2.04,10.87,5.9,.64,1.03,.49,2.35-.35,3.15Z"/><path class="cls-4" d="M729.89,323.16c-.26-.98-.52-1.96-.78-2.93-.61-2.35-2.04-4.66-4.24-6.87-.93-.93-2-1.85-3.19-2.74-1.15-.85-2.43-1.69-3.8-2.49-8.32-4.86-18.18-7.28-18.28-7.31l-.11-.03c-8.6-3.56-16.77-5.36-24.33-5.36h0c-2.03,0-4.01,.14-6.05,.42,.75,2.13-.03,4.52-1.97,5.77-.3,.2-7.61,5.24-11.29,19.4-.11,.43-.28,.85-.51,1.24-.08,.13-.21,.36-.4,.66,.11,.79,.18,1.5,.24,2.15,.46,5.39-.08,9.2-.14,9.62-.07,.46-.18,.92-.32,1.37-.15,.47-1.49,4.75-3.96,11.05,.5,4.88,3.53,11.42,8.75,18.93,4.83,6.94,9.97,12.42,10.19,12.65,.99,1.04,1.1,2.64,.26,3.8-.82,1.13-2.41,1.55-3.69,.95-13.63-6.42-18.81-16.55-20.74-24.12-3.73,8-7.71,15.2-11.87,21.42,2.83,8.9,6.04,15.04,9.52,18.24,6.44,5.92,15.54,9.89,22.64,9.89,2.73,0,7.44-.66,8.37-5.07,2.12-10.14,17.34-22.12,17.99-22.63l.33-.26,.42,.06c.12,.02,3,.4,7.02,.4,8.95,0,24.75-1.89,29.93-14.58,7.06-17.27,3.52-30.51,.09-43.3l-.09-.32Zm-55.47,46.57c-.56,.59-1.35,.93-2.16,.93-.49,0-.99-.12-1.42-.36-13.29-7.21-16.99-20.48-17.14-21.05-.31-1.17,.1-2.39,1.06-3.13,.93-.72,2.28-.81,3.3-.23,6.52,3.72,15.72,18.55,16.75,20.23,.7,1.15,.55,2.63-.38,3.61Zm26.63-18.9c-.94-2.06-1.82-4.12-2.22-5.04-1.35-1.59-11.58-13.27-24.79-19.23-3.45-1.56-6.85-2.62-10.11-3.15-.73-.12-1.39-.5-1.85-1.08-.47-.59-.7-1.32-.64-2.07,.11-1.55,1.37-2.74,2.93-2.76h.16s18.44,3.3,18.44,3.3c2.22,.78,4.34,1.71,6.3,2.75,8.45,4.47,14.39,11.3,17.19,19.75,3.87,11.68,3.61,12.05,2.62,13.41-.57,.79-1.49,1.26-2.46,1.26-2.24,0-3-1.48-5.57-7.13Zm30.61,5.41c-1.31,12.04-18.29,21.55-19.01,21.95-.44,.24-.94,.37-1.44,.37-1.01,0-1.94-.5-2.5-1.35-.85-1.3-.55-3.05,.68-4,15.51-11.91,11.6-26.73,11.42-27.35-.35-1.26,.17-2.63,1.28-3.33,1.09-.69,2.59-.57,3.56,.28,4.52,3.98,6.54,8.49,6,13.42Z"/><path class="cls-4" d="M643.27,288.29c-1.65-.68-3.73-.92-6.16-.65-2.08,.23-3.68,1.23-4.63,2.89-.52-.43-1.05-.74-1.49-.87-.95-.27-3.17-.1-5.12,1.15-1.82,1.16-2.96,2.97-3.3,5.22-.14,.9-.02,1.72,.3,2.44-1.76,1.6-3.25,3.94-3.88,6.38-.45,1.76,.15,2.83,.73,3.41,.92,.92,2.44,1.24,4,1.28-.37,.72-.68,1.46-.9,2.2-.54,1.81,.04,2.9,.63,3.5,.92,.93,2.49,1.23,4.12,1.23,.5,0,1.01-.03,1.51-.08,.04,.1,.08,.2,.13,.3-.56,.95-1.02,1.96-1.32,2.97-.54,1.81,.04,2.9,.63,3.5,.92,.93,2.49,1.23,4.12,1.23,1.22,0,2.48-.17,3.53-.36,.39,.95,.99,1.7,1.8,2.19,.62,.38,1.3,.56,1.99,.56,.76,0,1.54-.22,2.25-.67,2.34-1.46,3.49-4.87,3.08-9.11v-.14c.11,0,.24,.02,.36,.02,.98,0,1.84-.24,2.58-.71,1.96-1.26,2.31-3.67,2.34-4.95,.17-.2,.31-.43,.42-.66,.78-.15,1.62-.39,2.52-.76,3.14-1.27,5.13-3.34,5.32-5.53,.13-1.44-.52-2.73-1.78-3.53-.78-.5-1.76-.74-2.85-.8,1.74-2.18,2.41-4.47,1.79-6.29-.47-1.37-1.58-2.28-3.06-2.5-1.29-.19-2.73,.17-4.2,1.02-.56-1.77-1.54-3.09-2.83-3.7-.86-.41-1.78-.47-2.64-.2Zm-21.94,18.36c-.1-.1-.36-.36-.14-1.23,.39-1.51,1.18-2.94,2.11-4.08,0,.03-.02,.05-.03,.08-.74,2.1-.09,4.3,.65,5.85-1.16,0-2.15-.17-2.59-.61Zm13.76-14.56c.47-.84,1.21-1.3,2.35-1.42,.46-.05,1.02-.09,1.6-.09,.49,0,1,.03,1.5,.1-1.14,2.09-1.45,5.26-.85,9.01-.34-.12-.65-.22-.88-.29-.44-.13-1.15-.15-1.97-.02-.16-.46-.4-.9-.73-1.27-.26-.3-.62-.6-1.06-.86,0-.2,0-.38,0-.55,0-.4-.01-.86,.05-1.06,.23-.71,.1-1.55-.4-2.47,0,0,0,0,0,0,.1-.39,.22-.76,.39-1.07Zm-1.29,8.01c.07,.08,.12,.19,.16,.3-.09,.05-.18,.1-.27,.16-1.75,1.12-2.87,2.84-3.25,4.98-.95,.54-2.07,.98-3.35,1.21-.66-1.1-1.45-2.92-.95-4.33,.42-1.19,1.78-2.06,4.03-2.58,.76-.18,1.39-.25,1.91-.25,.92,0,1.48,.23,1.72,.51Zm-8.9-3.71c.24-1.55,.97-2.74,2.17-3.54,1.16-.76,2.38-.94,2.96-.94,.14,0,.24,0,.29,.02,.75,.23,2.59,2.3,2.51,2.98-.17,.52-.17,1.09-.16,1.66-.88-.07-1.93,0-3.21,.3-1.48,.35-2.7,.85-3.69,1.49-.17-.11-.34-.22-.47-.36-.24-.25-.55-.7-.41-1.61Zm4,17.64c-1.75,.17-3.25,.08-3.77-.45-.2-.2-.22-.59-.05-1.16,.26-.86,.64-1.7,1.1-2.48l.33-.03c1.64-.17,3.12-.6,4.41-1.19,.14,.23,.3,.46,.49,.66,.11,.11,.23,.2,.35,.3-.27,.23-.54,.47-.81,.75-1.13,1.15-1.82,2.39-2.06,3.6Zm6.79,6.46c-.04,.43-.03,.83-.02,1.23-2.41,.44-4.79,.49-5.48-.21-.2-.2-.22-.59-.05-1.16,.19-.65,.46-1.28,.77-1.89,.44,.23,.92,.39,1.44,.46,.23,.03,.45,.05,.68,.05,1.03,0,2.09-.31,3.14-.89-.25,.7-.42,1.5-.49,2.41Zm-2.96-4.29c-.33-.04-.9-.21-1.11-.8-.21-.62,.01-1.75,1.29-3.05,.49-.5,1.13-1.04,1.78-1.31,.66,.15,1.31,.23,1.92,.28,.53,.44,.97,1.1,1.24,1.63-1.98,2.62-3.92,3.41-5.12,3.25Zm.4-8.46c-.24-.25-.54-.7-.41-1.61,.24-1.55,.97-2.74,2.17-3.54,1.16-.76,2.38-.94,2.96-.94,.13,0,.23,0,.29,.02,1.55,.45,2.91,1.17,3.21,1.57-.12,.43-.17,.95-.23,1.55-.21,2.14-.49,3.81-1.98,4.15-1.24,.11-4.77,.12-6.03-1.2Zm7.61,16.05c-.28,.17-.82,.42-1.36,.09-.56-.34-1.11-1.35-.96-3.17,.09-1.1,.39-2.5,1.28-2.97,.27-.14,.59-.2,.92-.2,.69,0,1.44,.24,1.99,.47,.16,3.28-.83,5.13-1.86,5.77Zm5.84-10.19c-.86,.55-2.69,.12-5.02-1.19-.51-.29-1.05-.66-1.46-1.09-.03-.05-.06-.11-.09-.16,1.75-.53,2.59-1.91,3.01-3.35,.31,.05,.63,.09,.98,.09,.37,0,.78-.04,1.19-.11,.25,.71,.65,1.39,1.29,1.93,.3,.26,.65,.45,1.01,.61l.03,.34c.04,.47,0,2.33-.94,2.93Zm8.85-10.28c.37,.23,.4,.47,.38,.68-.07,.82-1.16,2.06-3.43,2.98-1.89,.77-3.32,.92-3.92,.42-.14-.12-.25-.28-.33-.47,2.32-.96,4-2.35,4.77-3.91,1.27-.16,2.12,.03,2.54,.3Zm-2.94-9.14c.43,.06,.55,.27,.62,.46,.23,.68-.11,1.96-1.32,3.44-.08-.06-.15-.11-.23-.17-1.07-.68-2.48-.91-4.1-.77,2.32-2.52,4.19-3.09,5.02-2.96Zm-2.56,6.31c.37,.23,.4,.47,.38,.68-.07,.82-1.16,2.06-3.43,2.98-1.45,.59-2.62,.81-3.36,.66,.04-.41,.09-.8,.14-.98,.17-.54,.12-1.11-.16-1.63-.11-.2-.24-.38-.4-.56,3.76-1.9,6.04-1.65,6.84-1.15Zm-3.84-6.28c-.95,.9-1.88,1.98-2.77,3.23l-.39,.54,.07,.36c-.13,.06-.27,.12-.4,.18-.58-4.41,.47-6.56,1.24-7.15,.34-.26,.58-.21,.77-.12,.6,.28,1.23,1.3,1.49,2.97Z"/></g><path class="cls-3" d="M202.28,131.52l7.98-2.33-1.93-3.43c-1.95,1.8-3.96,3.72-6.05,5.77Z"/><g><path class="cls-4" d="M715.59,295.46c-.4,.29-.81,.58-1.19,.88,.71,.3,1.42,.62,2.14,.96,2.99,1.39,5.65,2.89,8.02,4.47,6.09-5.23,8.48-10.85,9.05-15.19-6.8,1.96-12.85,5.07-18.02,8.88Z"/><path class="cls-4" d="M742,284.46c0,.16,0,.31,0,.47-.05,2.46-.58,6.91-3.16,12,2.39-2.09,9.49-7.21,18.27-3.64-1.16,3.61-6.41,17.4-19.07,19.33-.85,.13-1.8,.21-2.68,.17,.88,1.6,1.55,3.25,2,4.96,.16,.63,.33,1.27,.5,1.9,1.39-1.39,3.82-2.97,8.1-4.26,8.43-2.53,22.01,.47,27.24,1.81-5.32,.6-9.64,3.78-13.51,6.62-3.4,2.5-6.61,4.86-9.99,5.19-4.07,.4-7.72-1.49-10.26-3.36,1.54,6.09,2.93,12.84,2.98,20.31,39.99-12.17,52.39-46.95,52.39-46.95-28.81-15.01-45.42-15.58-52.81-14.56Zm16.42,23.24c-.51-.16-.65-.43-.73-.67-.72-2.27,2.88-8.23,5.58-11.86l19.89,5.64c-9.05,3.67-21.44,7.92-24.74,6.89Zm17.23,9.42s-.07,0-.1,0l.1-.34v.34Zm1.59-2.59c-1.37,.44-6.25-.98-8.69-2.05,4.78-1.6,15.55-7.12,16.93-7.83,.67-.34,.98-.31,1.02-.29,.13,.09,.23,.62,.2,1.15-2.86,3.31-7.77,8.48-9.46,9.02Z"/></g></svg>